# xmcd
#
# Track frame offsets:
#	150
#	38756
#	59349
#	77188
#	104668
#	127517
#	147101
#	177958
#	200535
#	229563
#	249827
#	284998
#
# Disc length: 4204 seconds
#
# Revision: 4078705562
# Processed by: cddbd v1.5.2PL0 Copyright (c) Steve Scherf et al.
# Submitted via: EZCDAudioConverter 8.1.0.1
#
DISCID=a5106a0c
DTITLE=Hank Williams Iii - Brothers Of The 4x4 
DYEAR=2013
DGENRE=Country
TTITLE0=Nearly Gone
TTITLE1=Hurtin' For Certin'
TTITLE2=Brothers Of The 4x4
TTITLE3=Farthest Away
TTITLE4=Held Up
TTITLE5=The Outdoor Plan
TTITLE6=Deep Scars
TTITLE7=Looky Yonder Commin
TTITLE8=Ain't Broken Down
TTITLE9=Overdrive
TTITLE10=Loners 4 Life
TTITLE11=Dread Full Drive
EXTD=
EXTT0=
EXTT1=
EXTT2=
EXTT3=
EXTT4=
EXTT5=
EXTT6=
EXTT7=
EXTT8=
EXTT9=
EXTT10=
EXTT11=
PLAYORDER=
